<?xml version="1.0" encoding="utf-8"?>
<!-- Generator: Adobe Illustrator 16.0.0, SVG Export Plug-In . SVG Version: 6.00 Build 0)  -->
<!DOCTYPE svg PUBLIC "-//W3C//DTD SVG 1.1//EN" "http://www.w3.org/Graphics/SVG/1.1/DTD/svg11.dtd">
<svg version="1.1" id="图层_1" xmlns="http://www.w3.org/2000/svg" xmlns:xlink="http://www.w3.org/1999/xlink" x="0px" y="0px"
	 width="1000px" height="400px" viewBox="0 0 1000 400" enable-background="new 0 0 1000 400" xml:space="preserve">
<path d="M375.582,220.497c-19.379-20.921-62.192-11.255-62.192-11.255c53.862,0,62.192,30.177,62.192,30.177
	c8.691-28.383,59.88-35.479,59.88-35.479C398.763,195.268,375.582,220.497,375.582,220.497z"/>
<path d="M288.606,104.53c-10.051-10.849-32.252-5.837-32.252-5.837c27.93,0,32.252,15.648,32.252,15.648
	c4.507-14.717,31.052-18.397,31.052-18.397C300.625,91.446,288.606,104.53,288.606,104.53z"/>
<path d="M428.733,36.883c-8.628-9.315-27.689-5.011-27.689-5.011c23.981,0,27.689,13.434,27.689,13.434
	c3.866-12.636,26.658-15.794,26.658-15.794C439.053,25.648,428.733,36.883,428.733,36.883z"/>
<path d="M585.686,155.389c-8.627-9.313-27.688-5.011-27.688-5.011c23.979,0,27.688,13.437,27.688,13.437
	c3.87-12.638,26.662-15.798,26.662-15.798C596.006,144.154,585.686,155.389,585.686,155.389z"/>
<path d="M64.018,257.954c-10.247-11.063-32.882-5.951-32.882-5.951c28.478,0,32.882,15.954,32.882,15.954
	c4.594-15.006,31.66-18.757,31.66-18.757C76.272,244.613,64.018,257.954,64.018,257.954z"/>
<path d="M738.33,307.888c-6.143-6.63-19.709-3.567-19.709-3.567c17.068,0,19.709,9.563,19.709,9.563
	c2.755-8.993,18.975-11.242,18.975-11.242C745.676,299.889,738.33,307.888,738.33,307.888z"/>
<path d="M950.583,330.468c-6.141-6.633-19.708-3.565-19.708-3.565c17.067,0,19.708,9.563,19.708,9.563
	c2.756-8.995,18.978-11.241,18.978-11.241C957.931,322.473,950.583,330.468,950.583,330.468z"/>
<path d="M496.38,370.286c-6.142-6.63-19.707-3.566-19.707-3.566c17.066,0,19.707,9.563,19.707,9.563
	c2.756-8.994,18.979-11.242,18.979-11.242C503.729,362.291,496.38,370.286,496.38,370.286z"/>
</svg>
